<svg xmlns="http://www.w3.org/2000/svg" viewBox="0 0 24 24" width="48" height="48"><path d="M9.4 10.5l4.77-8.26C13.47 2.09 12.75 2 12 2c-2.4 0-4.6.85-6.32 2.25l3.66 6.35.06-.1z"></path><path d="M21.54 9c-.92-2.92-3.15-5.26-6-6.34L11.88 9h9.66z"></path><path d="M21.8 10h-7.49l.29.5 4.76 8.25C21 16.97 22 14.61 22 12c0-.69-.07-1.35-.2-2z"></path><path d="M8.54 12l-3.9-6.75C3.01 7.03 2 9.39 2 12c0 .69.07 1.35.2 2h7.49l-1.15-2z"></path><path d="M2.46 15c.92 2.92 3.15 5.26 6 6.34L12.12 15H2.46z"></path><path d="M13.73 15l-3.9 6.76c.7.15 1.42.24 2.17.24 2.4 0 4.6-.85 6.32-2.25l-3.66-6.35-.93 1.6z"></path></svg>
